<?xml version="1.0" standalone="no"?>
<!DOCTYPE svg PUBLIC "-//W3C//DTD SVG 20010904//EN"
 "http://www.w3.org/TR/2001/REC-SVG-20010904/DTD/svg10.dtd">
<svg version="1.0" xmlns="http://www.w3.org/2000/svg"
 width="1024.000000pt" height="1024.000000pt" viewBox="0 0 1024.000000 1024.000000"
 preserveAspectRatio="xMidYMid meet">

<g transform="translate(0.000000,1024.000000) scale(0.100000,-0.100000)"
fill="#ffffff" stroke="none">
<path d="M5675 8912 c-11 -2 -32 -16 -47 -30 l-28 -26 0 -257 0 -256 -127
-182 c-191 -272 -188 -267 -174 -306 10 -30 62 -128 135 -257 32 -58 32 -69 2
-97 -23 -22 -56 -80 -75 -133 -11 -30 -94 -76 -256 -143 -77 -32 -91 -35 -128
-27 -56 13 -448 115 -569 149 l-98 26 0 78 0 77 -53 73 c-114 158 -216 298
-288 394 -41 55 -117 161 -169 235 -107 152 -139 178 -193 161 -56 -19 -82
-57 -78 -112 0 -9 74 -117 163 -240 89 -123 217 -302 286 -397 69 -96 124
-183 124 -195 0 -12 -20 -89 -45 -172 -95 -314 -149 -490 -153 -497 -2 -3 -19
-9 -37 -13 -38 -8 -332 -71 -582 -125 -99 -21 -197 -41 -217 -45 l-37 -6 -85
129 c-82 125 -133 182 -161 182 -24 0 -64 -19 -85 -40 -14 -14 -20 -33 -20
-65 0 -37 9 -57 56 -126 30 -45 53 -83 50 -86 -2 -3 -65 -4 -139 -4 l-135 2
-160 -81 c-87 -44 -171 -80 -186 -80 -15 0 -153 36 -307 80 -153 44 -297 80
-320 80 -52 0 -99 -42 -99 -90 0 -43 52 -94 111 -110 57 -14 339 -93 494 -136
66 -19 130 -34 142 -34 13 0 100 38 193 85 l171 85 211 -2 212 -3 58 -80 c31
-44 78 -111 104 -148 l47 -68 -16 -52 c-31 -104 -179 -613 -192 -665 -23 -83
-42 -121 -67 -132 -13 -5 -72 -42 -133 -81 -172 -110 -191 -118 -251 -109 -28
5 -80 15 -115 24 -188 44 -256 46 -402 11 -148 -35 -465 -106 -517 -116 -110
-19 -281 -59 -300 -69 -30 -16 -52 -66 -45 -101 4 -16 19 -38 33 -50 44 -34
110 -24 632 92 52 11 114 25 137 30 23 4 82 18 130 29 88 22 146 22 233 0 19
-5 64 -15 98 -22 36 -7 67 -19 72 -28 10 -19 50 -174 50 -194 0 -10 -30 -24
-87 -42 -84 -27 -92 -32 -180 -116 -50 -48 -93 -88 -95 -88 -1 0 -135 -34
-297 -74 -247 -62 -297 -78 -319 -100 -37 -36 -35 -86 3 -126 35 -37 54 -37
182 -6 54 13 195 48 313 77 l215 53 80 77 c80 77 118 101 215 138 45 17 60 18
104 10 28 -6 76 -15 106 -20 30 -6 71 -15 91 -20 20 -5 48 -9 63 -9 24 0 53
-6 171 -34 l50 -12 73 -215 c55 -163 72 -224 69 -254 -4 -39 -170 -510 -187
-531 -5 -5 -58 -16 -117 -23 -278 -32 -349 -42 -368 -52 -20 -10 -142 -155
-178 -210 -13 -20 -17 -38 -12 -58 7 -35 67 -91 96 -91 34 0 74 27 102 67 14
21 41 55 59 75 l33 37 191 26 c105 14 207 25 227 25 l37 0 0 -64 c0 -60 -3
-68 -41 -116 -104 -132 -109 -152 -49 -212 34 -34 44 -39 67 -33 36 8 79 50
162 155 l66 85 0 144 0 144 70 23 c39 12 120 37 180 54 61 17 175 52 254 76
149 46 155 46 231 14 280 -118 410 -181 410 -195 0 -7 -41 -61 -91 -121 -144
-172 -132 -135 -124 -380 l6 -212 -43 -53 c-24 -30 -79 -101 -123 -159 -44
-58 -114 -148 -155 -200 -42 -52 -87 -111 -100 -130 -13 -19 -41 -55 -62 -79
-42 -48 -48 -83 -23 -130 17 -33 65 -56 99 -47 27 7 87 67 162 163 27 34 63
79 79 99 219 277 367 474 372 494 4 14 1 72 -5 130 -7 58 -12 143 -12 189 l0
84 47 56 c90 106 158 181 165 181 4 0 31 -15 60 -33 70 -45 109 -57 178 -57
40 0 62 -5 70 -15 15 -19 104 -200 130 -265 12 -32 16 -61 12 -102 -4 -53 -2
-59 26 -88 40 -40 80 -40 126 0 40 35 66 86 66 128 0 16 -11 54 -24 83 -83
188 -138 324 -142 352 -4 26 -1 35 18 47 13 8 104 63 203 123 179 108 179 108
230 102 27 -4 66 -11 85 -15 19 -5 64 -14 100 -20 118 -20 172 -34 176 -44 2
-6 12 -153 23 -326 l20 -316 71 -199 c40 -110 103 -290 141 -400 76 -219 99
-255 160 -255 42 0 99 56 99 98 0 17 -36 129 -79 249 -155 428 -201 576 -201
645 0 35 -4 91 -9 125 -5 33 -12 146 -16 250 l-7 188 107 115 c60 63 146 154
191 201 l84 86 52 -4 c29 -2 85 -8 123 -13 39 -5 111 -14 160 -20 50 -6 104
-13 121 -16 28 -4 37 -15 80 -96 27 -50 60 -99 74 -109 17 -13 71 -23 175 -36
l149 -18 48 -75 c26 -41 89 -145 140 -230 51 -85 109 -171 129 -192 48 -51 87
-52 135 -4 46 46 44 76 -9 162 -24 38 -89 146 -145 240 -117 196 -152 247
-185 268 -12 9 -85 24 -160 35 -76 11 -142 23 -147 26 -5 3 -28 42 -53 88 -24
45 -53 96 -63 114 -18 31 -18 32 1 57 114 142 219 269 251 303 l39 43 272 -7
c149 -3 276 -9 281 -12 7 -5 99 -136 272 -388 23 -34 52 -68 64 -76 21 -14
253 -32 553 -44 l132 -6 30 31 c43 43 44 100 1 135 -26 22 -41 26 -147 31 -65
4 -192 12 -283 18 -154 11 -166 14 -187 37 -13 13 -81 110 -152 215 -71 105
-142 203 -158 219 l-30 27 -277 7 -277 6 -71 146 c-105 218 -144 302 -158 342
-15 42 -23 28 110 185 184 219 200 235 223 223 12 -6 106 -94 208 -195 l186
-184 49 0 c38 0 93 18 238 75 l189 75 61 -11 c33 -6 85 -13 113 -16 50 -5 54
-4 88 30 51 51 46 111 -13 141 -39 20 -175 46 -240 46 -45 0 -86 -12 -218 -65
-89 -36 -169 -65 -176 -65 -7 0 -96 83 -197 184 -179 180 -183 185 -177 218 3
19 0 59 -9 92 -9 32 -13 68 -9 80 6 20 53 128 116 269 35 75 39 77 123 51 102
-31 183 -44 211 -34 14 6 68 37 119 71 l94 60 373 29 c205 16 381 30 390 30
10 0 33 14 53 31 46 41 48 87 6 130 -34 34 -59 35 -271 19 -69 -6 -186 -15
-260 -21 -74 -6 -185 -14 -246 -18 l-112 -6 -93 -63 c-79 -53 -98 -62 -124
-56 -109 22 -556 132 -592 145 -14 5 -55 57 -99 126 -43 65 -106 163 -141 217
-36 54 -72 113 -80 131 l-15 32 90 135 c86 129 92 135 136 148 26 7 68 27 94
44 l47 31 272 -4 271 -3 94 55 c51 30 122 70 158 89 36 20 94 52 130 73 36 21
90 51 120 67 116 63 142 128 73 188 -49 43 -72 38 -223 -49 -67 -39 -124 -71
-126 -71 -2 0 -27 -14 -56 -31 -54 -32 -121 -70 -193 -108 -34 -18 -56 -21
-155 -20 -199 2 -202 -16 24 209 194 193 196 196 196 238 0 72 -64 117 -128
90 -18 -7 -150 -128 -295 -269 -370 -361 -392 -379 -497 -399 -25 -5 -88 -18
-140 -30 -390 -84 -528 -111 -569 -113 -40 -1 -258 101 -581 271 -183 96 -203
105 -269 119 -72 15 -70 14 -138 133 -54 97 -73 136 -73 156 0 8 36 67 80 132
45 64 106 154 136 200 l55 83 -3 274 c-3 259 -4 275 -24 301 -23 32 -69 53
-99 46z m651 -2073 c132 -58 214 -99 214 -107 0 -11 -37 -26 -270 -112 -342
-126 -405 -175 -555 -430 -129 -220 -179 -290 -258 -367 -45 -44 -102 -90
-127 -103 -41 -21 -248 -98 -420 -156 -160 -54 -357 -128 -410 -153 -97 -47
-181 -143 -303 -348 -151 -252 -240 -352 -366 -409 -93 -43 -451 -164 -485
-164 -11 0 -42 11 -70 23 -28 13 -78 30 -111 37 -33 7 -64 16 -68 21 -5 4 11
27 35 51 38 40 60 51 193 98 215 76 345 128 385 154 45 29 145 130 175 176 13
19 65 103 115 185 175 283 252 343 605 470 88 31 210 75 270 97 61 22 119 48
130 58 25 23 68 40 104 40 38 0 106 46 177 121 53 56 124 149 124 162 0 8 76
133 138 227 96 146 199 240 327 300 63 29 376 149 391 150 6 0 33 -10 60 -21z
m871 -473 c47 -83 101 -180 120 -216 20 -36 39 -69 43 -75 20 -27 60 -106 60
-119 0 -22 -97 -123 -146 -152 -23 -14 -138 -59 -255 -100 -245 -86 -311 -119
-391 -192 -77 -71 -108 -116 -223 -317 -110 -193 -143 -241 -212 -306 -100
-97 -152 -121 -593 -269 -241 -81 -335 -123 -416 -184 -91 -68 -148 -148 -269
-371 -57 -104 -83 -144 -139 -208 -87 -101 -155 -142 -352 -217 -150 -56 -149
-56 -250 -16 -48 20 -94 36 -102 36 -8 0 -98 -27 -201 -59 -102 -33 -202 -63
-222 -66 l-36 -7 -16 64 c-9 35 -28 117 -43 183 -14 66 -35 157 -45 203 -19
81 -18 102 2 102 21 0 497 173 564 205 87 41 216 167 283 276 204 333 272 415
398 481 38 20 214 88 391 152 177 63 354 131 392 151 92 49 207 165 284 287
77 125 105 168 166 265 69 109 176 208 276 257 42 20 187 77 322 127 293 106
360 140 438 219 69 70 50 85 172 -134z"/>
<path d="M6901 7804 c-28 -36 -26 -60 8 -95 36 -36 51 -36 90 -3 38 32 41 71
8 102 -33 31 -80 29 -106 -4z"/>
<path d="M2153 2713 c-62 -65 -116 -128 -119 -140 -14 -54 40 -133 91 -133 36
0 62 19 161 121 139 142 151 174 90 235 -27 27 -42 34 -72 34 -35 0 -46 -8
-151 -117z"/>
<path d="M5091 2324 c-27 -22 -31 -32 -31 -76 0 -41 5 -54 29 -79 64 -63 171
-18 171 73 0 32 -7 47 -34 74 -43 43 -90 46 -135 8z"/>
</g>
</svg>
