<?xml version="1.0" standalone="no"?>
<!DOCTYPE svg PUBLIC "-//W3C//DTD SVG 20010904//EN"
 "http://www.w3.org/TR/2001/REC-SVG-20010904/DTD/svg10.dtd">
<svg version="1.0" xmlns="http://www.w3.org/2000/svg"
 width="1024.000000pt" height="1024.000000pt" viewBox="0 0 1024.000000 1024.000000"
 preserveAspectRatio="xMidYMid meet">

<g transform="translate(0.000000,1024.000000) scale(0.100000,-0.100000)"
fill="#ffffff" stroke="none">
<path d="M4835 9214 c-234 -24 -491 -55 -531 -65 -21 -6 -79 -19 -129 -29 -49
-10 -120 -28 -157 -39 -38 -12 -97 -30 -133 -40 -124 -37 -280 -94 -352 -127
-39 -19 -75 -34 -79 -34 -10 0 -345 -169 -364 -184 -8 -6 -35 -22 -60 -35
-134 -71 -475 -314 -625 -446 -180 -158 -411 -398 -486 -505 -13 -19 -27 -37
-30 -40 -13 -10 -165 -217 -189 -255 -13 -22 -27 -42 -30 -45 -9 -8 -120 -186
-120 -194 0 -3 -11 -23 -24 -44 -38 -61 -105 -190 -158 -307 -27 -60 -56 -123
-64 -140 -7 -16 -27 -68 -43 -115 -16 -47 -39 -110 -49 -140 -11 -30 -26 -75
-32 -100 -7 -25 -21 -72 -31 -105 -17 -56 -61 -239 -79 -330 -4 -22 -13 -65
-19 -94 -38 -184 -75 -718 -60 -856 4 -39 8 -100 8 -137 1 -37 6 -98 11 -135
6 -38 19 -126 30 -198 11 -71 25 -150 30 -175 6 -25 15 -65 20 -90 5 -25 20
-88 35 -140 15 -52 31 -111 35 -130 5 -19 16 -60 25 -90 9 -30 19 -64 22 -75
3 -11 9 -24 13 -30 4 -5 13 -28 19 -50 17 -54 50 -146 62 -168 5 -9 20 -46 33
-81 66 -174 241 -499 386 -716 180 -271 443 -569 670 -760 36 -30 67 -58 68
-62 2 -5 10 -8 18 -8 8 0 14 -4 14 -9 0 -4 19 -21 43 -37 23 -16 47 -34 52
-41 17 -20 327 -228 382 -257 18 -9 51 -29 75 -45 41 -28 360 -191 382 -196 6
-1 33 -12 59 -23 27 -12 51 -22 53 -22 2 0 23 -9 47 -19 82 -37 224 -85 428
-145 31 -9 67 -16 80 -16 14 0 29 -4 34 -9 6 -6 78 -22 160 -37 392 -70 472
-77 855 -71 179 3 343 8 365 11 22 4 87 13 145 22 58 9 148 24 200 34 52 10
116 21 143 25 26 4 47 11 47 16 0 5 10 9 22 9 51 0 386 105 548 172 196 82
454 211 590 297 36 22 85 53 110 68 25 15 63 41 86 58 22 16 76 55 119 85 220
155 485 409 721 690 106 128 280 383 364 535 18 33 42 76 53 95 235 418 410
967 478 1505 25 195 28 242 28 455 1 576 -82 1032 -287 1575 -100 265 -304
643 -456 845 -23 30 -45 62 -48 70 -7 16 -128 169 -191 240 -88 99 -234 254
-261 279 -17 14 -59 54 -95 87 -88 82 -272 233 -352 289 -176 123 -369 245
-387 245 -5 0 -12 4 -14 9 -4 11 -298 162 -298 153 0 -4 -4 -2 -8 3 -8 12
-188 90 -287 125 -371 132 -630 193 -960 224 -93 9 -213 21 -265 26 -120 13
-249 11 -415 -6z m43 -412 l3 -103 -34 -34 c-30 -30 -40 -33 -112 -39 -75 -7
-124 -13 -270 -36 -174 -28 -536 -134 -681 -200 -22 -11 -63 -28 -90 -38 -59
-24 -335 -165 -372 -191 -15 -10 -67 -44 -116 -76 -270 -172 -574 -436 -772
-671 -80 -94 -250 -321 -279 -373 -11 -20 -40 -65 -64 -101 -52 -77 -187 -343
-229 -450 -16 -41 -32 -84 -37 -95 -35 -89 -79 -220 -90 -270 -8 -33 -24 -96
-35 -140 -12 -44 -25 -96 -30 -115 -18 -71 -63 -398 -69 -497 -3 -56 -11 -107
-17 -113 -7 -7 -56 -10 -135 -8 l-124 3 2 150 c1 178 21 323 71 540 46 193 70
280 117 415 18 52 41 120 50 150 17 56 200 435 241 500 129 206 228 345 369
521 76 95 400 424 473 481 30 24 74 59 96 79 23 19 66 53 96 74 145 103 221
155 224 155 2 0 30 17 62 39 33 21 86 53 119 71 33 18 67 38 75 44 8 7 67 36
130 65 63 29 138 64 165 77 74 35 228 90 415 149 120 38 324 83 475 106 77 11
160 24 185 29 25 4 77 7 115 7 l70 -2 3 -103z m710 82 c269 -38 582 -120 812
-210 153 -60 378 -167 480 -227 30 -18 70 -41 89 -52 32 -20 171 -109 281
-181 30 -20 97 -71 149 -113 51 -42 114 -91 140 -110 61 -46 322 -308 394
-396 31 -38 83 -102 114 -140 59 -71 205 -282 240 -345 10 -19 30 -53 44 -75
22 -34 62 -107 125 -225 26 -48 91 -195 109 -245 10 -27 22 -54 26 -60 14 -19
101 -291 134 -420 65 -253 105 -518 105 -701 l0 -135 -132 3 -133 3 -6 100
c-10 160 -52 414 -113 675 -28 117 -124 397 -183 530 -49 111 -137 279 -196
375 -107 173 -188 286 -338 471 -60 74 -361 376 -381 383 -6 2 -50 35 -97 73
-47 38 -93 75 -101 81 -29 23 -225 155 -260 175 -19 11 -75 44 -125 74 -82 49
-294 158 -308 158 -4 0 -30 11 -59 24 -258 117 -682 228 -958 251 -91 7 -144
28 -160 64 -17 37 -24 160 -11 194 10 26 14 27 77 27 36 0 145 -11 242 -26z
m-802 -823 c37 -22 84 -81 84 -104 0 -9 5 -19 10 -22 16 -10 14 -2387 -2
-2407 -7 -9 -33 -27 -58 -40 -99 -50 -206 -191 -239 -313 -14 -51 -14 -198 0
-250 12 -47 80 -185 91 -185 4 0 14 -12 22 -27 8 -16 54 -55 103 -89 l88 -61
3 -1152 2 -1151 -24 -48 c-29 -57 -76 -99 -129 -113 -32 -9 -45 -7 -83 11 -53
26 -106 89 -123 147 -9 32 -11 690 -11 2840 0 2598 1 2801 17 2843 23 60 57
104 96 124 44 22 115 20 153 -3z m713 4 c44 -22 107 -100 120 -147 9 -32 11
-735 9 -2843 l-3 -2800 -22 -46 c-22 -45 -70 -96 -111 -118 -11 -6 -40 -11
-64 -11 -66 0 -131 54 -156 129 -18 51 -17 2311 1 2333 6 9 31 28 55 42 99 61
187 176 227 296 14 42 16 75 12 174 -3 66 -11 137 -19 156 -38 99 -134 209
-231 266 l-52 30 -3 1195 c-3 1346 -8 1245 75 1319 39 34 53 40 90 40 24 0 57
-7 72 -15z m-1441 -169 c37 -19 67 -55 81 -95 8 -25 11 -356 11 -1206 0 -1309
4 -1232 -70 -1299 -46 -41 -98 -54 -149 -36 -46 16 -67 35 -103 89 l-28 45 0
1150 c1 924 3 1158 14 1188 20 55 72 116 130 148 58 34 75 36 114 16z m2107
-1 c50 -20 140 -109 164 -161 21 -44 21 -51 21 -1192 l0 -1149 -31 -46 c-36
-55 -101 -97 -149 -97 -42 0 -91 30 -132 83 l-33 41 0 1221 c0 1354 -6 1238
66 1291 38 28 48 29 94 9z m-2800 -387 c59 -27 55 142 55 -2424 0 -2231 -1
-2358 -17 -2386 -10 -16 -30 -37 -45 -46 -27 -16 -30 -15 -74 8 -57 31 -170
149 -195 204 -18 40 -19 113 -19 2203 0 2110 0 2164 19 2213 22 59 93 145 164
201 52 42 71 46 112 27z m3504 -2 c44 -23 154 -147 184 -209 l28 -56 0 -2170
1 -2171 -32 -54 c-45 -79 -155 -181 -217 -200 -29 -9 -60 8 -83 47 -20 31 -20
73 -20 2392 0 2208 1 2362 17 2385 36 52 71 62 122 36z m-4181 -1379 l-5 -744
-22 -39 c-12 -21 -39 -51 -58 -66 l-36 -28 -220 0 -220 0 6 148 c7 157 19 235
67 432 80 325 195 599 374 888 28 46 60 99 70 118 11 19 26 34 34 34 12 0 14
-100 10 -743z m4870 634 c129 -210 238 -432 297 -602 20 -57 41 -113 46 -124
5 -11 16 -47 24 -80 8 -33 22 -80 30 -105 35 -109 84 -432 85 -557 l0 -43
-220 0 c-248 0 -254 1 -314 72 l-36 42 0 754 c0 598 3 753 13 750 6 -3 40 -51
75 -107z m-2440 -1508 c45 -11 96 -48 126 -91 21 -31 29 -56 33 -104 4 -57 2
-67 -25 -109 -37 -57 -84 -94 -140 -109 -112 -29 -242 83 -242 210 0 54 35
124 80 163 38 32 104 58 128 51 8 -2 26 -7 40 -11z m-3544 -424 c22 -17 26
-28 26 -69 0 -27 4 -71 9 -97 5 -26 15 -86 22 -133 40 -281 136 -634 223 -825
8 -16 17 -41 21 -55 18 -64 194 -398 262 -500 24 -36 49 -74 56 -84 33 -53
208 -280 265 -345 85 -95 292 -297 361 -353 49 -39 222 -167 296 -219 139 -96
437 -259 595 -324 36 -14 79 -32 95 -40 17 -7 57 -22 90 -34 33 -11 76 -26 95
-34 19 -8 82 -27 140 -41 58 -15 128 -33 155 -41 57 -16 247 -48 415 -69 111
-15 116 -16 148 -50 31 -35 32 -39 32 -122 0 -47 -5 -95 -11 -106 -10 -19 -17
-20 -88 -14 -42 3 -107 13 -146 21 -38 8 -85 15 -103 15 -34 0 -362 63 -417
80 -182 57 -370 121 -460 157 -121 49 -416 195 -454 224 -13 11 -28 19 -34 19
-14 0 -311 198 -388 259 -164 130 -203 164 -338 296 -210 205 -318 334 -489
583 -29 42 -56 82 -60 87 -4 6 -34 56 -66 113 -40 69 -68 108 -87 118 -38 19
-63 68 -56 111 4 25 -2 50 -27 101 -19 37 -37 78 -41 92 -4 14 -13 39 -21 55
-116 255 -252 797 -271 1076 -10 159 -3 167 138 168 73 1 90 -2 113 -20z m963
15 c56 -11 128 -87 141 -150 6 -30 11 -307 11 -731 1 -593 0 -683 -13 -683
-17 0 -36 26 -105 142 -62 105 -201 384 -226 453 -10 28 -21 55 -25 60 -4 6
-17 42 -30 80 -12 39 -29 87 -36 108 -20 54 -83 300 -99 387 -19 102 -39 305
-32 323 5 12 37 15 191 16 102 1 202 -1 223 -5z m5466 -3 c13 -5 27 -17 31
-26 5 -15 -18 -246 -29 -285 -2 -8 -7 -31 -10 -50 -7 -41 -41 -176 -60 -240
-7 -25 -23 -79 -36 -120 -12 -41 -24 -79 -28 -85 -3 -5 -6 -15 -7 -22 -3 -18
-53 -141 -91 -223 -20 -41 -39 -84 -44 -95 -47 -107 -233 -415 -251 -415 -4 0
-8 324 -8 721 l0 721 59 58 c56 57 60 59 117 63 129 8 334 6 357 -2z m802 -7
c23 -15 25 -22 25 -102 0 -47 -4 -111 -10 -141 -38 -227 -62 -354 -75 -406 -8
-33 -21 -89 -30 -125 -17 -68 -98 -323 -120 -375 -7 -16 -22 -50 -33 -75 -10
-25 -22 -54 -26 -66 -10 -33 -161 -337 -191 -384 -55 -87 -75 -130 -75 -160 0
-17 -6 -33 -14 -36 -8 -3 -11 -15 -8 -30 10 -54 -52 -124 -111 -124 -15 0 -37
-21 -72 -69 -27 -37 -77 -101 -110 -141 -66 -81 -350 -368 -410 -415 -21 -16
-55 -44 -74 -61 -121 -104 -452 -328 -581 -393 -8 -4 -37 -19 -65 -34 -79 -41
-261 -127 -268 -127 -3 0 -30 -11 -59 -24 -56 -26 -203 -79 -278 -101 -25 -7
-85 -25 -133 -40 -143 -42 -469 -103 -673 -126 -144 -16 -144 -16 -144 116 l0
104 37 30 c27 22 48 31 74 31 33 0 166 18 289 40 160 27 235 42 242 46 4 3 52
16 105 30 147 38 373 120 508 184 149 70 277 135 322 163 171 105 239 151 348
232 245 182 582 535 759 795 137 200 301 515 376 722 89 242 140 433 140 519
0 35 6 69 14 82 28 41 47 142 55 286 8 140 9 145 35 168 24 20 37 23 117 23
66 0 96 -4 114 -16z m-4783 -16 c50 -15 102 -74 117 -133 8 -31 11 -380 11
-1167 0 -1079 -1 -1125 -19 -1165 -13 -28 -33 -49 -65 -68 l-45 -26 -44 19
c-57 25 -112 74 -145 131 l-27 46 -7 1080 c-5 745 -4 1095 3 1127 19 84 98
168 158 168 13 0 41 -5 63 -12z m2216 -2 c34 -18 75 -62 96 -103 14 -29 16
-140 16 -1133 0 -1094 0 -1100 -21 -1145 -23 -48 -104 -130 -144 -145 -15 -6
-45 -10 -69 -10 -50 0 -90 34 -106 91 -14 49 -13 2262 1 2314 29 104 147 173
227 131z"/>
</g>
</svg>
