<?xml version="1.0" standalone="no"?>
<!DOCTYPE svg PUBLIC "-//W3C//DTD SVG 20010904//EN"
 "http://www.w3.org/TR/2001/REC-SVG-20010904/DTD/svg10.dtd">
<svg version="1.0" xmlns="http://www.w3.org/2000/svg"
 width="500.000000pt" height="473.000000pt" viewBox="0 0 500.000000 473.000000"
 preserveAspectRatio="xMidYMid meet">

<g transform="translate(0.000000,473.000000) scale(0.100000,-0.100000)"
fill="#ffffff" stroke="none">
<path d="M628 4725 c-3 -3 -34 -7 -69 -8 -35 -1 -71 -7 -79 -12 -8 -5 -27 -8
-42 -7 -15 1 -28 -2 -28 -6 0 -5 -11 -7 -24 -5 -17 4 -42 -11 -102 -59 -44
-36 -79 -69 -79 -74 0 -5 -4 -15 -8 -21 -5 -7 -6 -13 -3 -13 3 0 -5 -11 -17
-25 -51 -57 -78 -95 -73 -104 3 -5 0 -11 -8 -14 -7 -3 -16 -18 -19 -34 -3 -15
-12 -59 -21 -96 -8 -38 -15 -72 -14 -75 1 -4 -1 -14 -5 -22 -15 -40 -25 -107
-25 -168 0 -67 14 -203 24 -232 3 -8 7 -33 8 -55 1 -22 14 -66 29 -98 15 -32
27 -62 27 -68 0 -22 93 -200 159 -304 160 -253 304 -415 417 -471 68 -34 153
-38 216 -11 l37 15 33 -43 c44 -57 58 -65 131 -71 60 -5 132 6 327 51 230 53
360 74 360 59 0 -6 -20 -33 -79 -107 -43 -53 -66 -106 -81 -185 -16 -78 -8
-124 26 -169 45 -59 78 -68 191 -55 54 6 131 20 172 32 50 13 77 17 81 10 17
-27 33 -293 35 -585 3 -342 7 -375 48 -375 46 0 52 33 55 307 2 139 6 253 8
253 3 0 58 -45 122 -101 547 -473 613 -539 890 -889 72 -91 149 -188 171 -216
23 -28 41 -54 41 -58 0 -14 242 -282 281 -311 22 -16 60 -51 85 -77 25 -27 49
-48 54 -48 4 0 22 -13 40 -30 18 -16 36 -27 41 -24 5 3 13 -6 19 -20 5 -14 17
-26 25 -26 9 0 28 -9 43 -19 30 -22 107 -38 226 -46 43 -3 81 -7 85 -9 23 -14
195 33 213 59 4 5 8 7 8 2 1 -38 231 174 297 273 53 80 101 216 114 325 39
333 -94 806 -295 1049 -142 170 -408 398 -529 454 -82 37 -245 81 -357 97
-345 47 -415 64 -489 113 -33 22 -96 52 -138 66 -77 25 -231 56 -281 56 -23 0
-24 3 -19 37 9 53 56 139 106 195 68 75 213 165 321 197 156 47 374 41 478
-13 100 -52 147 -152 123 -261 -10 -43 -26 -71 -77 -132 -68 -83 -75 -106 -47
-154 20 -34 85 -62 123 -54 68 15 133 90 176 205 24 66 28 89 28 190 1 169
-31 252 -131 334 -71 60 -259 106 -426 106 -123 0 -267 -29 -362 -74 -27 -13
-60 -26 -72 -30 -13 -4 -23 -12 -23 -17 0 -5 -6 -9 -12 -9 -20 0 -176 -110
-208 -146 -16 -19 -31 -34 -34 -34 -2 0 -10 32 -16 72 -10 55 -10 101 -1 197
15 173 16 179 46 265 15 42 26 91 26 109 -1 17 -2 40 -2 49 0 9 -7 22 -15 29
-8 6 -14 17 -14 23 -1 20 -51 49 -95 54 -36 4 -49 0 -82 -24 -21 -16 -43 -36
-49 -44 -7 -8 -21 -26 -33 -39 -12 -13 -21 -28 -21 -34 0 -9 -208 -217 -217
-217 -2 0 -19 -14 -38 -32 -19 -17 -43 -36 -53 -42 -10 -6 -34 -21 -52 -33
-41 -27 -55 -19 -64 40 -4 23 -14 85 -22 137 -9 52 -17 111 -19 131 -1 21 -6
54 -9 75 -8 53 -14 108 -21 174 -3 30 -11 73 -19 95 -9 25 -11 47 -5 62 5 14
5 23 -1 23 -5 0 -5 12 -1 28 4 15 4 38 1 52 -4 14 -5 37 -3 51 8 41 -44 145
-84 169 -64 38 -175 17 -205 -39 -23 -43 -16 -139 16 -217 16 -38 33 -73 38
-78 4 -6 8 -25 8 -43 0 -18 5 -33 11 -33 5 0 7 -4 4 -10 -3 -5 -1 -28 5 -51 6
-23 13 -60 16 -83 2 -22 7 -61 10 -86 4 -25 8 -54 10 -65 1 -11 16 -72 32
-135 17 -63 33 -145 36 -181 3 -36 13 -85 21 -109 20 -57 19 -78 -7 -116 -33
-47 -63 -61 -184 -83 -60 -11 -131 -25 -159 -31 -127 -29 -318 -61 -395 -66
-70 -4 -91 -2 -120 13 -32 16 -35 23 -38 66 -9 144 210 306 478 352 105 18
131 31 161 78 15 24 18 42 14 73 -5 39 -4 42 25 54 17 7 37 25 45 41 17 32 20
102 5 128 -11 21 -15 40 -40 186 -11 60 -24 123 -30 139 -13 36 -13 261 -1
284 5 10 12 42 14 72 3 30 9 66 14 80 20 53 15 110 -11 165 -15 29 -33 56 -42
59 -10 4 -13 1 -9 -7 4 -6 0 -4 -9 6 -10 13 -21 17 -35 12 -12 -3 -44 -8 -72
-10 -28 -2 -59 -10 -68 -18 -9 -8 -21 -13 -27 -10 -18 6 -43 -31 -48 -70 -4
-35 -28 -72 -39 -61 -2 3 -8 -7 -11 -21 -4 -14 -10 -24 -15 -21 -8 5 -21 -7
-140 -131 -38 -40 -72 -73 -76 -73 -15 0 -35 31 -83 126 -27 54 -59 108 -71
118 -12 11 -31 36 -43 55 -18 31 -58 79 -93 111 -30 28 -98 80 -105 80 -5 0
-22 11 -39 26 -16 14 -31 24 -33 24 -2 -1 -16 3 -31 9 -33 13 -32 13 -39 6z
m-38 -245 c79 -16 157 -60 190 -107 14 -19 37 -50 52 -68 43 -51 108 -189 120
-254 13 -67 -1 -135 -33 -169 -10 -11 -15 -22 -12 -26 3 -3 0 -12 -7 -21 -9
-10 -11 -41 -8 -103 4 -93 24 -148 80 -227 l29 -39 -26 -13 c-15 -9 -25 -22
-25 -36 1 -177 -10 -359 -24 -405 -49 -155 -184 -174 -315 -43 -101 101 -169
209 -246 391 -20 47 -50 109 -66 138 -16 29 -27 57 -24 62 3 4 -4 29 -15 55
-11 26 -20 60 -20 76 0 16 -4 37 -9 47 -5 9 -13 28 -19 42 -5 14 -17 41 -25
60 -11 24 -13 38 -5 47 6 8 7 24 3 40 -15 52 -15 65 -4 107 7 22 11 60 10 84
-2 24 2 48 7 55 6 7 13 28 16 48 3 19 12 49 21 65 8 16 15 35 15 42 0 6 4 12
9 12 5 0 13 11 18 24 11 33 140 129 164 123 11 -3 19 -1 19 3 0 10 45 7 130
-10z m917 -299 c7 -10 21 -115 33 -233 20 -198 50 -391 71 -445 8 -21 6 -23
-24 -23 -65 1 -333 47 -362 62 -38 20 -57 42 -86 97 -32 63 -30 120 8 174 29
41 68 127 58 127 -10 0 31 59 75 109 16 18 30 37 30 42 0 14 43 49 61 49 9 0
23 7 30 17 14 16 64 42 84 43 6 0 16 -9 22 -19z m-324 -817 c29 -8 72 -14 97
-14 25 -1 63 -4 84 -8 l39 -7 -85 -33 c-46 -18 -115 -53 -152 -78 -37 -24 -69
-44 -70 -44 -2 0 -6 35 -9 78 -4 42 -10 94 -13 114 l-7 38 32 -16 c18 -9 56
-22 84 -30z m1451 -136 c6 -30 26 -362 25 -409 -1 -41 23 -94 46 -103 9 -3 27
-6 41 -6 l24 0 -22 -41 c-12 -23 -26 -67 -32 -98 l-12 -56 -89 -8 c-50 -4
-160 -17 -245 -27 -120 -15 -156 -17 -162 -7 -4 7 -8 101 -8 210 0 212 7 250
53 289 52 45 65 55 119 90 31 20 77 58 103 83 26 25 49 45 51 45 2 0 23 14 46
30 49 36 56 37 62 8z m-591 -515 c11 -54 30 -273 24 -279 -11 -11 -240 -35
-250 -25 -13 13 9 75 48 136 49 76 146 195 160 195 7 0 15 -12 18 -27z m726
-376 c51 -46 81 -54 280 -76 172 -19 195 -28 184 -71 -8 -29 -103 -129 -206
-218 -112 -96 -154 -151 -137 -181 6 -12 13 -21 16 -21 3 0 39 20 80 45 40 25
76 45 78 45 9 0 180 113 236 156 54 41 110 121 110 158 0 9 6 19 14 22 25 10
383 -85 498 -132 104 -42 209 -101 223 -124 8 -12 100 -71 135 -86 64 -28 153
-132 210 -244 18 -36 47 -87 65 -115 34 -55 115 -255 115 -285 0 -10 4 -21 9
-25 6 -3 10 -13 10 -23 0 -9 4 -35 10 -57 12 -48 18 -308 8 -350 -4 -16 -9
-43 -11 -60 -9 -64 -16 -94 -37 -141 -34 -81 -43 -98 -66 -124 -13 -14 -23
-28 -23 -32 0 -12 -82 -88 -125 -116 -91 -58 -225 -67 -317 -22 -160 80 -446
349 -829 780 -215 243 -319 351 -569 593 -315 307 -410 415 -410 470 0 25 -38
64 -68 70 -31 6 -42 33 -42 103 0 41 10 47 120 68 119 23 211 31 312 30 86 -1
89 -2 127 -37z"/>
<path d="M1275 1823 c-16 -2 -75 -11 -130 -19 -55 -9 -118 -18 -140 -21 -22
-3 -47 -9 -56 -14 -9 -4 -47 -18 -85 -30 -195 -61 -228 -74 -281 -106 -68 -41
-84 -57 -118 -117 -27 -48 -33 -110 -12 -137 50 -65 173 -91 215 -46 29 31 42
70 35 110 -4 28 -1 39 16 53 23 21 168 83 192 84 9 0 45 9 80 21 137 44 397
82 661 99 11 0 39 72 34 86 -11 29 -280 54 -411 37z"/>
<path d="M1295 1314 c-137 -27 -242 -59 -429 -130 -57 -23 -112 -80 -121 -127
-14 -75 40 -136 110 -123 35 7 137 65 185 106 32 27 71 49 150 83 19 8 76 33
125 55 50 22 107 45 127 52 43 13 43 13 52 63 l7 37 -68 -1 c-37 0 -99 -7
-138 -15z"/>
</g>
</svg>
