<?xml version="1.0" standalone="no"?>
<!DOCTYPE svg PUBLIC "-//W3C//DTD SVG 20010904//EN"
 "http://www.w3.org/TR/2001/REC-SVG-20010904/DTD/svg10.dtd">
<svg version="1.0" xmlns="http://www.w3.org/2000/svg"
 width="500.000000pt" height="714.000000pt" viewBox="0 0 500.000000 714.000000"
 preserveAspectRatio="xMidYMid meet">

<g transform="translate(0.000000,714.000000) scale(0.100000,-0.100000)"
fill="#ffffff" stroke="none">
<path d="M2310 7133 c-80 -5 -252 -31 -350 -53 -621 -142 -1172 -522 -1523
-1052 -42 -62 -85 -131 -98 -153 -35 -63 -129 -253 -129 -262 0 -4 -7 -20 -14
-35 -17 -32 -88 -239 -109 -318 -21 -79 -44 -189 -64 -315 -24 -154 -24 -555
0 -710 63 -397 185 -726 389 -1047 59 -92 293 -402 539 -713 30 -38 120 -153
198 -255 79 -102 156 -201 171 -220 16 -19 65 -82 109 -140 45 -58 94 -120
109 -139 27 -34 43 -55 171 -222 36 -46 67 -86 70 -89 4 -3 26 -32 51 -65 25
-33 47 -62 50 -65 3 -3 28 -34 55 -70 27 -36 54 -70 60 -76 5 -6 51 -64 100
-129 122 -161 151 -193 212 -232 125 -80 257 -79 388 3 55 33 81 62 206 224
44 58 93 121 109 140 15 19 64 82 109 140 179 232 223 288 348 446 13 17 43
56 66 86 23 30 103 133 177 228 74 94 144 184 155 199 11 14 58 75 105 135
136 174 191 245 430 553 143 186 212 290 298 453 111 212 179 392 232 620 55
236 64 324 64 590 0 283 -15 407 -80 665 -20 76 -91 287 -110 323 -7 15 -14
30 -14 35 0 8 -94 199 -129 262 -13 22 -56 91 -98 153 -319 481 -802 840
-1358 1008 -281 85 -568 116 -895 97z m510 -528 c440 -84 770 -256 1075 -560
110 -109 285 -326 285 -352 0 -3 6 -14 14 -22 22 -25 128 -236 163 -327 188
-478 188 -1030 0 -1508 -35 -91 -141 -302 -163 -327 -8 -8 -14 -18 -14 -21 0
-8 -109 -171 -119 -178 -6 -4 -209 -266 -315 -405 -17 -22 -33 -42 -36 -45 -3
-3 -28 -34 -55 -70 -27 -36 -52 -67 -55 -70 -3 -3 -32 -40 -65 -84 -33 -43
-80 -104 -105 -136 -25 -31 -74 -95 -110 -141 -35 -46 -70 -91 -77 -99 -7 -8
-57 -72 -110 -141 -121 -155 -261 -336 -371 -477 -46 -59 -122 -158 -170 -219
-48 -62 -89 -112 -92 -112 -3 0 -45 52 -95 116 -49 63 -117 150 -149 192 -33
42 -80 103 -106 136 -181 233 -383 492 -393 505 -15 18 -235 301 -292 374 -22
29 -69 90 -105 137 -35 46 -72 93 -81 104 -10 11 -54 67 -98 125 -84 109 -138
178 -226 290 -146 184 -286 446 -359 670 -8 25 -26 92 -40 150 -162 674 30
1392 507 1896 304 322 685 525 1117 598 135 23 163 24 370 21 116 -2 217 -10
270 -20z"/>
<path d="M2360 5600 c-137 -20 -281 -75 -394 -149 -205 -133 -366 -354 -430
-591 -47 -175 -47 -365 0 -540 64 -237 225 -458 430 -591 90 -59 173 -95 304
-132 61 -17 103 -21 230 -21 157 0 215 10 346 57 289 105 534 377 618 687 100
373 -11 759 -298 1027 -120 112 -259 188 -429 234 -82 22 -290 33 -377 19z
m236 -511 c89 -16 180 -65 249 -134 69 -68 108 -136 136 -233 71 -250 -71
-524 -320 -614 -77 -29 -234 -30 -311 -4 -70 24 -180 96 -223 146 -177 208
-165 513 28 705 118 118 273 165 441 134z"/>
<path d="M1031 1212 c-205 -138 -310 -335 -271 -503 11 -46 53 -142 70 -159 3
-3 22 -26 43 -52 20 -26 73 -74 117 -107 244 -184 595 -304 1075 -367 184 -25
686 -25 870 0 442 58 771 163 1012 322 121 80 205 166 254 259 61 116 63 232
4 350 -42 85 -85 137 -173 208 -102 82 -136 99 -71 36 113 -109 141 -229 78
-337 -112 -196 -468 -355 -954 -427 -302 -44 -609 -55 -895 -30 -483 42 -826
135 -1061 287 -229 149 -263 340 -91 505 30 29 53 53 51 53 -2 -1 -28 -17 -58
-38z"/>
</g>
</svg>
