<?xml version="1.0" standalone="no"?>
<!DOCTYPE svg PUBLIC "-//W3C//DTD SVG 20010904//EN"
 "http://www.w3.org/TR/2001/REC-SVG-20010904/DTD/svg10.dtd">
<svg version="1.0" xmlns="http://www.w3.org/2000/svg"
 width="500.000000pt" height="263.000000pt" viewBox="0 0 500.000000 263.000000"
 preserveAspectRatio="xMidYMid meet">

<g transform="translate(0.000000,263.000000) scale(0.100000,-0.100000)"
fill="#ffffff" stroke="none">
<path d="M1552 2608 c-52 -56 -36 -110 62 -207 l63 -63 7 110 c8 123 3 143
-44 167 -40 21 -63 19 -88 -7z m88 -49 c7 -13 9 -40 5 -72 l-7 -51 -34 37
c-32 35 -45 83 -27 100 14 15 53 6 63 -14z"/>
<path d="M2410 2424 c-352 -53 -588 -177 -676 -354 -55 -110 -40 -260 38 -390
l33 -55 -32 -75 c-23 -54 -40 -80 -62 -93 -28 -17 -31 -24 -31 -65 0 -26 -3
-77 -6 -113 l-7 -65 -43 -13 c-51 -15 -122 -74 -149 -124 l-19 -35 -90 85
c-183 172 -385 298 -551 344 -105 29 -243 29 -333 1 -195 -62 -360 -258 -432
-514 -46 -163 -60 -333 -40 -485 31 -229 145 -473 221 -473 l29 0 -47 58
c-214 263 -223 806 -18 1123 59 91 106 141 177 189 276 184 654 51 1069 -376
121 -125 251 -282 246 -297 -2 -7 -13 -13 -24 -15 -15 -2 -50 31 -136 128 -65
72 -117 127 -117 123 0 -4 45 -66 100 -136 55 -71 100 -138 100 -150 1 -12 9
-51 19 -87 18 -63 17 -67 -1 -121 l-19 -56 -222 -62 c-351 -99 -357 -105 -27
-31 123 27 225 50 227 50 3 0 3 -10 1 -22 -4 -28 -145 -139 -307 -240 l-124
-78 43 0 c35 0 59 11 144 66 55 37 138 95 182 130 l81 63 29 -30 c31 -33 31
-33 -14 -20 -17 5 -32 9 -32 8 -1 -1 -9 -50 -19 -109 l-17 -108 250 1 251 0
-155 55 c-85 31 -175 63 -200 71 -96 35 -15 20 220 -40 164 -42 244 -66 242
-75 -1 -7 9 -12 26 -12 21 0 32 7 40 25 10 22 9 27 -6 31 -9 3 -28 10 -42 16
-24 11 -24 11 17 22 23 6 53 22 68 36 23 21 72 112 89 164 5 13 12 17 30 12
74 -18 193 -27 361 -25 l189 2 30 -67 c16 -36 27 -69 24 -72 -3 -3 -55 -16
-114 -30 l-109 -24 -70 24 c-38 14 -119 42 -180 64 -153 56 -154 56 -133 43 9
-6 90 -41 180 -77 90 -36 167 -70 172 -75 6 -5 -1 -20 -19 -39 l-29 -30 147 0
148 0 -16 31 c-23 44 -12 47 15 5 l22 -36 104 0 104 0 243 121 c133 67 244
123 246 125 2 2 -18 28 -44 58 -39 46 -44 57 -31 62 10 4 26 -2 39 -14 36 -34
108 -62 163 -62 67 0 143 23 231 71 69 38 74 39 101 25 26 -13 32 -13 60 5 55
32 72 73 72 166 0 59 6 97 21 137 27 68 20 113 -23 162 -29 33 -31 38 -20 68
17 46 15 108 -4 135 -16 22 -129 81 -157 81 -7 0 -59 -20 -115 -45 -56 -25
-115 -45 -132 -45 -27 0 -70 32 -70 52 0 4 -14 23 -32 43 -37 42 -93 74 -151
83 l-42 8 -7 54 c-4 30 -15 99 -23 153 -19 117 -20 119 -10 183 7 51 7 53 -35
98 -24 26 -41 48 -39 50 2 2 20 11 39 21 90 46 75 105 -45 175 -22 13 -41 25
-43 26 -2 1 4 16 12 33 67 130 -79 292 -324 361 -182 50 -474 65 -680 34z
m478 -39 c188 -25 305 -64 400 -134 55 -41 102 -114 102 -160 0 -47 -66 -111
-147 -141 -127 -48 -162 -54 -743 -135 -312 -43 -462 -80 -592 -145 -65 -32
-64 -32 -111 50 -62 108 -71 243 -23 338 52 102 201 207 379 266 204 67 500
92 735 61z m585 -487 c27 -22 30 -30 21 -45 -6 -10 -32 -26 -57 -35 -37 -14
-52 -15 -77 -6 -18 6 -67 8 -113 6 -66 -4 -102 -12 -183 -45 -79 -32 -123 -43
-205 -52 -176 -18 -206 -17 -289 17 -41 17 -68 32 -60 35 8 3 134 21 280 41
312 43 399 63 500 114 l75 37 38 -20 c21 -11 52 -32 70 -47z m-98 -142 c57
-26 117 -88 109 -111 -7 -17 -22 -16 -209 21 -66 12 -149 26 -184 30 -58 6
-62 8 -45 21 34 25 168 62 224 62 37 1 71 -7 105 -23z m-836 -52 c83 -31 80
-38 -22 -49 -93 -9 -196 -39 -270 -78 -34 -17 -65 -33 -69 -35 -4 -2 -12 16
-18 39 -11 41 -11 42 26 80 64 65 106 81 199 76 53 -3 104 -14 154 -33z m-392
-19 c-23 -21 -38 -25 -89 -25 -34 0 -59 2 -56 5 8 9 130 43 153 44 18 0 17 -2
-8 -24z m-147 -88 c-14 -6 -62 -28 -107 -48 -46 -21 -83 -34 -83 -29 0 5 5 20
11 33 17 36 65 56 139 56 56 0 62 -2 40 -12z m665 -21 c167 -76 238 -302 150
-477 -59 -115 -150 -174 -270 -174 -84 1 -139 24 -204 86 -157 152 -124 445
64 555 82 48 168 51 260 10z m612 -109 c83 -53 123 -130 123 -240 0 -59 -5
-83 -26 -125 -63 -128 -195 -175 -315 -114 -92 46 -139 128 -139 242 0 114 47
195 140 243 47 25 63 28 116 24 42 -3 73 -12 101 -30z m356 -289 c58 -17 122
-82 137 -138 41 -154 -82 -299 -234 -276 -71 11 -71 12 -36 122 17 55 33 105
36 111 7 26 68 53 119 53 l50 1 -24 19 c-32 27 -67 35 -98 21 -14 -7 -26 -10
-27 -9 -1 2 0 27 2 56 4 58 8 60 75 40z m-1915 -75 c6 -37 10 -69 7 -71 -2 -2
-12 1 -23 7 -35 18 -70 12 -104 -17 l-31 -29 55 5 c87 7 119 -14 147 -93 12
-35 29 -72 36 -82 21 -27 18 -41 -15 -58 -58 -30 -69 -24 -183 110 -59 68
-107 132 -107 140 0 63 106 153 181 155 24 0 27 -4 37 -67z m2484 -39 c37 -19
51 -49 44 -89 -12 -60 -32 -74 -156 -105 -140 -36 -150 -36 -158 -8 -3 13 -18
47 -33 76 l-28 53 22 9 c209 92 242 99 309 64z m-322 -185 c29 -64 32 -77 28
-150 -4 -93 -16 -109 -80 -109 -44 0 -50 8 -72 107 -12 52 -12 64 -1 73 23 19
65 112 65 143 0 43 20 22 60 -64z m-1983 -42 c144 -75 382 -82 833 -22 390 51
606 52 675 1 17 -12 17 -17 5 -46 -62 -150 -256 -339 -429 -418 -51 -24 -70
-26 -221 -30 -147 -4 -291 6 -368 25 -22 5 -23 9 -17 53 6 45 4 51 -37 105
-41 54 -45 56 -80 52 -34 -5 -39 -2 -60 33 -30 49 -99 107 -147 121 -33 10
-45 8 -86 -10 -26 -11 -49 -21 -50 -21 -1 0 -15 16 -30 36 -22 28 -25 38 -14
44 10 7 7 19 -15 61 -16 28 -25 50 -20 48 5 -2 33 -17 61 -32z m2364 -8 c36
-38 37 -79 6 -134 l-23 -40 -109 3 c-61 2 -127 5 -147 8 l-38 6 0 58 c0 59 19
96 21 43 l2 -28 4 27 c3 20 12 30 31 34 15 4 65 17 112 30 110 29 107 29 141
-7z m-534 -126 c13 -54 -10 -107 -62 -142 -50 -34 -35 -39 21 -7 57 32 72 32
115 3 56 -38 66 -40 29 -8 l-34 31 26 0 c15 0 34 3 44 7 15 6 16 1 12 -35 l-6
-41 87 -36 c47 -21 90 -41 95 -45 11 -11 -113 -69 -178 -82 -69 -15 -113 -3
-186 52 -61 45 -66 47 -93 23 -18 -17 -20 -17 -53 22 -40 47 -41 52 -13 60 29
9 39 45 39 136 0 75 1 79 23 80 12 0 42 8 67 18 25 10 48 15 51 12 3 -3 11
-25 16 -48z m-214 18 c4 -4 5 -44 1 -89 -6 -70 -10 -82 -27 -88 -16 -5 -29 3
-59 37 -20 24 -38 49 -38 55 0 6 12 33 26 59 25 44 29 46 58 41 17 -4 34 -10
39 -15z m-1649 -50 c34 -48 70 -84 61 -59 -5 12 4 22 34 37 22 12 51 21 63 21
65 0 179 -120 162 -172 -6 -22 -6 -22 13 -5 33 29 78 22 109 -18 25 -33 26
-40 20 -98 -8 -66 -60 -189 -94 -220 -10 -9 -45 -22 -78 -27 -32 -6 -68 -15
-80 -21 -15 -8 -51 -3 -145 20 -149 37 -170 47 -231 100 -56 50 -78 106 -50
128 43 34 51 34 66 6 l15 -28 -6 35 c-3 19 -18 82 -34 139 -16 58 -29 108 -29
113 0 8 153 86 171 87 4 1 18 -17 33 -38z m1891 -61 c3 -5 1 -10 -4 -10 -6 0
-11 5 -11 10 0 6 2 10 4 10 3 0 8 -4 11 -10z m205 -2 c0 -9 3 -9 9 1 7 11 28
12 102 7 52 -4 113 -9 135 -12 41 -6 42 -6 48 -55 8 -57 -9 -97 -48 -118 -24
-13 -34 -11 -123 28 -184 80 -172 70 -158 139 6 23 35 31 35 10z m-471 -183
l131 -160 -53 -27 c-28 -15 -57 -27 -63 -28 -15 0 -204 292 -204 315 0 11 44
64 52 62 4 -1 66 -74 137 -162z m-325 -67 c11 -18 50 -80 88 -137 38 -57 68
-104 66 -106 -9 -8 -109 -55 -117 -55 -17 0 -151 239 -151 269 0 8 77 60 90
61 3 0 14 -15 24 -32z m-268 -328 c-15 -5 -53 -12 -84 -16 -52 -6 -56 -6 -43
10 10 12 30 16 85 15 56 -1 65 -3 42 -9z"/>
<path d="M2360 1438 l-35 -23 26 -3 c42 -5 72 -44 73 -96 2 -94 -83 -141 -138
-76 l-26 32 0 -34 c1 -68 60 -153 123 -177 72 -28 155 6 197 81 37 64 36 165
-3 231 -48 82 -144 111 -217 65z"/>
<path d="M3013 1369 c-9 -9 -6 -17 13 -32 35 -27 31 -91 -8 -120 -25 -19 -28
-19 -52 -3 -26 16 -26 16 -26 -10 0 -39 35 -89 76 -109 47 -22 94 -13 133 26
63 62 61 161 -4 226 -27 27 -41 33 -77 33 -24 0 -49 -5 -55 -11z"/>
<path d="M2383 749 c-86 -13 -114 -24 -106 -44 5 -14 14 -15 57 -8 28 4 98 8
156 8 92 0 112 -3 160 -26 63 -30 133 -97 176 -169 16 -27 35 -50 42 -50 65
-1 -62 179 -174 246 -45 27 -158 54 -214 53 -19 -1 -63 -5 -97 -10z"/>
<path d="M4002 705 c0 -16 2 -22 5 -12 2 9 2 23 0 30 -3 6 -5 -1 -5 -18z"/>
<path d="M1131 2252 c-59 -33 -76 -92 -46 -156 36 -75 124 -100 308 -89 l108
6 -48 46 c-26 26 -68 73 -93 106 -25 32 -56 67 -70 77 -38 28 -117 33 -159 10z
m139 -51 c14 -10 47 -46 73 -82 l49 -64 -38 -6 c-49 -8 -164 5 -191 22 -12 7
-30 28 -40 46 -45 83 62 145 147 84z"/>
<path d="M1088 233 c7 -3 16 -2 19 1 4 3 -2 6 -13 5 -11 0 -14 -3 -6 -6z"/>
</g>
</svg>
