<?xml version="1.0" standalone="no"?>
<!DOCTYPE svg PUBLIC "-//W3C//DTD SVG 20010904//EN"
 "http://www.w3.org/TR/2001/REC-SVG-20010904/DTD/svg10.dtd">
<svg version="1.0" xmlns="http://www.w3.org/2000/svg"
 width="500.000000pt" height="348.000000pt" viewBox="0 0 500.000000 348.000000"
 preserveAspectRatio="xMidYMid meet">

<g transform="translate(0.000000,348.000000) scale(0.100000,-0.100000)"
fill="#ffffff" stroke="none">
<path d="M3600 3477 c-3 -3 -54 -7 -115 -11 -159 -10 -296 -33 -480 -81 -93
-25 -345 -105 -390 -124 -11 -5 -36 -16 -57 -25 -20 -9 -41 -16 -47 -16 -6 0
-19 -4 -29 -9 -9 -6 -64 -28 -122 -51 -58 -23 -118 -47 -135 -55 -16 -7 -73
-29 -125 -50 -52 -20 -109 -43 -126 -51 -68 -30 -347 -124 -464 -155 -198 -53
-491 -69 -635 -35 -142 34 -302 103 -395 171 -68 49 -114 65 -191 65 -116 0
-208 -61 -256 -169 -43 -96 -22 -222 50 -299 29 -31 136 -101 262 -171 62 -35
204 -90 305 -119 175 -50 304 -65 503 -58 95 3 186 8 202 10 62 9 219 39 260
50 6 2 24 6 40 10 17 4 41 11 55 16 14 4 52 16 85 25 108 30 334 115 740 278
285 114 542 204 631 221 11 2 52 12 90 21 143 34 207 40 394 40 179 0 258 -12
410 -62 123 -41 271 -116 380 -193 157 -110 166 -115 255 -118 96 -4 157 17
212 75 61 65 78 108 78 198 0 113 -30 168 -135 247 -278 208 -591 346 -909
399 -93 16 -333 34 -341 26z"/>
<path d="M3465 2354 c-174 -17 -284 -36 -445 -78 -144 -37 -381 -116 -520
-173 -14 -6 -63 -25 -110 -43 -47 -18 -98 -38 -115 -46 -247 -110 -689 -265
-840 -295 -131 -25 -164 -29 -279 -35 -245 -13 -471 51 -687 197 -125 83 -261
80 -360 -8 -116 -105 -131 -277 -34 -391 55 -64 249 -181 405 -244 235 -96
518 -141 744 -119 307 30 526 86 911 234 172 66 375 147 430 172 95 42 403
152 520 185 213 60 378 87 546 89 291 5 604 -103 863 -297 121 -90 206 -110
308 -72 71 26 123 71 156 134 22 43 26 64 27 131 0 89 -14 127 -68 185 -109
118 -474 325 -692 391 -153 47 -249 66 -430 84 -161 16 -157 17 -330 -1z"/>
<path d="M3469 1246 c-2 -2 -33 -6 -69 -10 -67 -6 -142 -18 -220 -34 -125 -27
-157 -34 -180 -42 -14 -4 -52 -16 -85 -25 -152 -44 -731 -261 -880 -330 -85
-39 -384 -142 -510 -175 -152 -40 -231 -52 -375 -57 -267 -10 -444 44 -716
216 -178 113 -424 -26 -424 -239 0 -66 25 -132 71 -184 72 -81 327 -223 504
-279 112 -35 190 -53 323 -74 40 -6 378 -6 402 0 8 2 38 7 65 11 161 24 358
74 535 134 93 32 417 156 465 177 17 8 66 28 110 45 44 17 94 37 110 45 117
53 413 154 585 198 315 82 632 80 881 -4 143 -48 307 -135 449 -239 147 -107
282 -106 395 5 120 117 114 292 -16 409 -78 70 -263 190 -389 251 -287 141
-563 205 -879 205 -81 0 -150 -2 -152 -4z"/>
</g>
</svg>
